<svg width="64" height="64" viewBox="0 0 64 64" fill="none" xmlns="http://www.w3.org/2000/svg">
<circle cx="32" cy="32" r="30.5" fill="#2C2C2C" stroke="#F4DD9B" stroke-width="3"/>
<path d="M43.1071 19H21.8929C20.2952 19 19 20.2952 19 21.8929V43.1071C19 44.7048 20.2952 46 21.8929 46H43.1071C44.7048 46 46 44.7048 46 43.1071V21.8929C46 20.2952 44.7048 19 43.1071 19ZM24.6652 42.1429C24.2413 42.1429 23.8783 41.8492 23.7843 41.4421L22.8804 37.5247C22.8327 37.3182 22.8592 37.1014 22.9551 36.9124C23.051 36.7233 23.2103 36.574 23.4052 36.4905L27.6238 34.6825C27.804 34.6053 28.0044 34.5888 28.1949 34.6354C28.3853 34.682 28.5554 34.7893 28.6796 34.941L30.5477 37.2243C33.4974 35.8403 35.8692 33.436 37.2242 30.5478L34.9409 28.6797C34.7892 28.5555 34.6819 28.3854 34.6353 28.195C34.5887 28.0045 34.6052 27.8041 34.6824 27.6239L36.4905 23.4053C36.574 23.2104 36.7233 23.0511 36.9123 22.9552C37.1014 22.8593 37.3181 22.8329 37.5247 22.8805L41.4421 23.7844C41.6413 23.8303 41.819 23.9424 41.9463 24.1024C42.0736 24.2624 42.1429 24.4608 42.1429 24.6652C42.1429 34.3256 34.3114 42.1429 24.6652 42.1429Z" fill="#F4DD9B"/>
</svg>
