<svg width="102" height="102" viewBox="0 0 102 102" fill="none" xmlns="http://www.w3.org/2000/svg">
<g filter="url(#filter0_d)">
<circle cx="51" cy="51" r="38.5" fill="#2C2C2C" stroke="#F4DD9B" stroke-width="3"/>
<path d="M64.8839 34.75H38.3661C36.3689 34.75 34.75 36.3689 34.75 38.3661V64.8839C34.75 66.8811 36.3689 68.5 38.3661 68.5H64.8839C66.8811 68.5 68.5 66.8811 68.5 64.8839V38.3661C68.5 36.3689 66.8811 34.75 64.8839 34.75ZM41.8315 63.6786C41.3016 63.6786 40.8478 63.3115 40.7304 62.8027L39.6005 57.9059C39.5409 57.6477 39.574 57.3768 39.6939 57.1405C39.8138 56.9042 40.0129 56.7175 40.2564 56.6131L45.5297 54.3532C45.755 54.2566 46.0055 54.236 46.2436 54.2942C46.4816 54.3525 46.6943 54.4866 46.8495 54.6763L49.1846 57.5303C52.8718 55.8004 55.8364 52.795 57.5303 49.1848L54.6761 46.8496C54.4865 46.6944 54.3524 46.4818 54.2941 46.2437C54.2358 46.0057 54.2565 45.7551 54.353 45.5299L56.6131 40.2566C56.7175 40.013 56.9041 39.8139 57.1404 39.694C57.3767 39.5741 57.6476 39.5411 57.9058 39.6007L62.8026 40.7305C63.0516 40.7879 63.2738 40.9281 63.4329 41.128C63.592 41.328 63.6786 41.5759 63.6786 41.8315C63.6786 53.907 53.8892 63.6786 41.8315 63.6786Z" fill="#F4DD9B"/>
</g>
<defs>
<filter id="filter0_d" x="0" y="0" width="102" height="102" filterUnits="userSpaceOnUse" color-interpolation-filters="sRGB">
<feFlood flood-opacity="0" result="BackgroundImageFix"/>
<feColorMatrix in="SourceAlpha" type="matrix" values="0 0 0 0 0 0 0 0 0 0 0 0 0 0 0 0 0 0 127 0"/>
<feOffset/>
<feGaussianBlur stdDeviation="5.5"/>
<feColorMatrix type="matrix" values="0 0 0 0 0 0 0 0 0 0 0 0 0 0 0 0 0 0 0.34 0"/>
<feBlend mode="normal" in2="BackgroundImageFix" result="effect1_dropShadow"/>
<feBlend mode="normal" in="SourceGraphic" in2="effect1_dropShadow" result="shape"/>
</filter>
</defs>
</svg>
