<svg width="53" height="53" viewBox="0 0 53 53" fill="none" xmlns="http://www.w3.org/2000/svg">
<path d="M47.3214 0H5.67857C2.54234 0 0 2.54234 0 5.67857V47.3214C0 50.4577 2.54234 53 5.67857 53H47.3214C50.4577 53 53 50.4577 53 47.3214V5.67857C53 2.54234 50.4577 0 47.3214 0ZM11.1205 45.4286C10.2885 45.4286 9.57585 44.8521 9.39141 44.0531L7.61709 36.3633C7.52353 35.9579 7.57542 35.5324 7.76371 35.1613C7.95199 34.7903 8.2647 34.4972 8.64716 34.3332L16.9282 30.7842C17.2819 30.6327 17.6754 30.6002 18.0492 30.6917C18.423 30.7832 18.7569 30.9938 19.0006 31.2916L22.6677 35.7736C28.4579 33.057 33.1135 28.3373 35.7735 22.6679L31.2914 19.0009C30.9936 18.7571 30.783 18.4232 30.6915 18.0494C30.6 17.6756 30.6324 17.2822 30.784 16.9284L34.3331 8.6474C34.497 8.26493 34.7901 7.95223 35.1612 7.76394C35.5323 7.57566 35.9577 7.52376 36.3632 7.61733L44.0529 9.39165C44.444 9.48179 44.7929 9.70183 45.0427 10.0158C45.2926 10.3298 45.4286 10.7193 45.4286 11.1205C45.4286 30.0837 30.0556 45.4286 11.1205 45.4286Z" fill="#00BFFC"/>
</svg>
